<svg width="24" height="25" viewBox="0 0 24 25" fill="none" xmlns="http://www.w3.org/2000/svg">
<rect y="0.781494" width="24" height="24" rx="12" fill="white" fill-opacity="0.2"/>
<path d="M11.8437 3.48706C10.0055 3.48706 8.2085 4.03217 6.68004 5.05345C5.15158 6.07474 3.96029 7.52633 3.25682 9.22466C2.55334 10.923 2.36928 12.7918 2.72791 14.5947C3.08654 16.3977 3.97175 18.0538 5.27159 19.3536C6.57144 20.6535 8.22755 21.5387 10.0305 21.8973C11.8334 22.2559 13.7022 22.0719 15.4006 21.3684C17.0989 20.6649 18.5505 19.4736 19.5718 17.9452C20.5931 16.4167 21.1382 14.6197 21.1382 12.7815C21.1382 11.5609 20.8978 10.3523 20.4307 9.22466C19.9636 8.09701 19.279 7.0724 18.4159 6.20933C17.5528 5.34627 16.5282 4.66164 15.4006 4.19456C14.2729 3.72747 13.0643 3.48706 11.8437 3.48706ZM9.98486 16.964V8.59899L15.5615 12.7815L9.98486 16.964Z" fill="white"/>
</svg>
