<svg width="30" height="30" viewBox="0 0 30 30" fill="none" xmlns="http://www.w3.org/2000/svg">
<path d="M14.8533 29.3086C6.90559 29.3086 0.436768 22.8398 0.436768 14.8921C0.436768 6.94441 6.90559 0.475586 14.8533 0.475586C22.8009 0.475586 29.2698 6.94441 29.2698 14.8921C29.2698 22.8398 22.8009 29.3086 14.8533 29.3086ZM14.8533 2.80083C8.18447 2.80083 2.76201 8.22329 2.76201 14.8921C2.76201 21.5609 8.18447 26.9833 14.8533 26.9833C21.522 26.9833 26.9445 21.5609 26.9445 14.8921C26.9445 8.22329 21.522 2.80083 14.8533 2.80083Z" fill="white"/>
<path d="M10.6684 13.4737C7.94325 13.4737 4.99485 13.0692 1.85112 12.2507C1.22796 12.0879 0.855921 11.4554 1.01869 10.8323C1.18145 10.2091 1.81392 9.83707 2.43708 9.99984C11.9613 12.4739 19.416 10.9067 23.9921 5.47492C24.406 4.98662 25.1407 4.92151 25.629 5.33541C26.122 5.7493 26.1824 6.48407 25.7686 6.97238C22.1365 11.2834 17.0024 13.4737 10.6684 13.4737Z" fill="white"/>
<path d="M4.85571 24.7558C4.58598 24.7558 4.32091 24.6628 4.10233 24.4768C3.61403 24.0583 3.55823 23.3235 3.97212 22.8352C10.7711 14.8875 19.5698 12.9994 28.1128 17.6639C28.6755 17.9708 28.8847 18.6777 28.5778 19.2404C28.2709 19.8031 27.564 20.0123 27.0013 19.7054C16.7423 14.1109 9.27832 20.2123 5.7393 24.3512C5.51143 24.6163 5.18589 24.7558 4.85571 24.7558Z" fill="white"/>
<path d="M18.6619 28.7508C18.62 28.7508 18.5781 28.7508 18.5363 28.7461C17.8992 28.6764 17.4388 28.1044 17.5085 27.4626C18.4154 19.1476 16.2762 10.7627 11.156 2.53138C10.8165 1.98728 10.9839 1.2711 11.528 0.931616C12.0721 0.59213 12.7883 0.759548 13.1278 1.30365C18.5316 9.9861 20.7825 18.8732 19.8198 27.7184C19.7501 28.3137 19.2478 28.7508 18.6619 28.7508Z" fill="white"/>
</svg>
